<?xml version="1.0" encoding="us-ascii" standalone="no"?><svg xmlns="http://www.w3.org/2000/svg" xmlns:xlink="http://www.w3.org/1999/xlink" contentStyleType="text/css" height="964.8px" preserveAspectRatio="none" style="width:664px;height:964px;background:#FFFFFF;" version="1.1" viewBox="0 0 664 964" width="664.8px" zoomAndPan="magnify"><defs/><g><path d="M12,12 L12,42.3727 A0,0 0 0 0 12,42.3727 L254.4,42.3727 A0,0 0 0 0 254.4,42.3727 L254.4,33.6 L278.4,27.1863 L254.4,24 L254.4,24 L242.4,12 L12,12 A0,0 0 0 0 12,12 " fill="#FEFFDD" style="stroke:#181818;stroke-width:0.6;"/><path d="M242.4,12 L242.4,24 L254.4,24 L242.4,12 " fill="#FEFFDD" style="stroke:#181818;stroke-width:0.6;"/><text fill="#000000" font-family="sans-serif" font-size="15.6" lengthAdjust="spacing" textLength="217.2" x="19.2" y="33.082">request Session Cancellation</text><ellipse cx="290.4" cy="27.1863" fill="#222222" rx="12" ry="12" style="stroke:#222222;stroke-width:1.2;"/><rect fill="#F1F1F1" height="40.9594" rx="15" ry="15" style="stroke:#181818;stroke-width:0.6;" width="123.6" x="228.6" y="66.3727"/><text fill="#000000" font-family="sans-serif" font-size="14.4" lengthAdjust="spacing" textLength="99.6" x="240.6" y="92.2945">Submit a Form</text><polygon fill="#F1F1F1" points="260.4,131.332,320.4,131.332,334.8,145.732,320.4,160.132,260.4,160.132,246,145.732,260.4,131.332" style="stroke:#181818;stroke-width:0.6;"/><text fill="#000000" font-family="sans-serif" font-size="13.2" lengthAdjust="spacing" textLength="60" x="260.4" y="150.7207">Accepted</text><text fill="#000000" font-family="sans-serif" font-size="13.2" lengthAdjust="spacing" textLength="18" x="228" y="142.9477">No</text><text fill="#000000" font-family="sans-serif" font-size="13.2" lengthAdjust="spacing" textLength="22.8" x="334.8" y="142.9477">Yes</text><rect fill="#F1F1F1" height="40.9594" rx="15" ry="15" style="stroke:#181818;stroke-width:0.6;" width="151.2" x="74.1" y="172.132"/><text fill="#000000" font-family="sans-serif" font-size="14.4" lengthAdjust="spacing" textLength="127.2" x="86.1" y="198.0539">Notify the Teacher</text><rect fill="#F1F1F1" height="40.9594" rx="15" ry="15" style="stroke:#181818;stroke-width:0.6;" width="223.2" x="319.5" y="172.132"/><text fill="#000000" font-family="sans-serif" font-size="14.4" lengthAdjust="spacing" textLength="199.2" x="331.5" y="198.0539">session -&gt; cancelled = True</text><rect fill="none" height="641.1035" style="stroke:#000000;stroke-width:3.0;" width="403.2" x="249.3" y="225.0914"/><path d="M338.1,225.0914 L338.1,236.4773 L326.1,248.4773 L249.3,248.4773 " fill="none" style="stroke:#000000;stroke-width:3.0;"/><text fill="#000000" font-family="sans-serif" font-size="16.8" lengthAdjust="spacing" textLength="76.8" x="252.9" y="242.5336">Sub Party</text><rect fill="none" height="356.9965" style="stroke:#000000;stroke-width:3.0;" width="322.8" x="273.3" y="389.1984"/><path d="M387.3,389.1984 L387.3,400.5844 L375.3,412.5844 L273.3,412.5844 " fill="none" style="stroke:#000000;stroke-width:3.0;"/><text fill="#000000" font-family="sans-serif" font-size="16.8" lengthAdjust="spacing" textLength="102" x="276.9" y="406.6406">Sub Request</text><rect fill="#F1F1F1" height="40.9594" rx="15" ry="15" style="stroke:#181818;stroke-width:0.6;" width="153.6" x="354.3" y="432.9844"/><text fill="#000000" font-family="sans-serif" font-size="14.4" lengthAdjust="spacing" textLength="129.6" x="366.3" y="458.9063">Submit a Sub Form</text><rect fill="#F1F1F1" height="57.9187" rx="15" ry="15" style="stroke:#181818;stroke-width:0.6;" width="267.6" x="297.3" y="556.1168"/><text fill="#000000" font-family="sans-serif" font-size="14.4" lengthAdjust="spacing" textLength="243.6" x="309.3" y="582.0387">Current session -&gt; deleted = True</text><text fill="#000000" font-family="sans-serif" font-size="14.4" lengthAdjust="spacing" textLength="238.8" x="309.3" y="598.998">New session ----&gt; is-sub = True</text><polygon fill="#F1F1F1" points="401.1,497.9437,461.1,497.9437,475.5,512.3438,461.1,526.7438,401.1,526.7438,386.7,512.3438,401.1,497.9437" style="stroke:#181818;stroke-width:0.6;"/><text fill="#000000" font-family="sans-serif" font-size="13.2" lengthAdjust="spacing" textLength="22.8" x="435.9" y="539.5055">Yes</text><text fill="#000000" font-family="sans-serif" font-size="13.2" lengthAdjust="spacing" textLength="60" x="401.1" y="517.3324">Accepted</text><text fill="#000000" font-family="sans-serif" font-size="13.2" lengthAdjust="spacing" textLength="18" x="475.5" y="509.5594">No</text><polygon fill="#F1F1F1" points="431.1,638.0355,445.5,652.4355,431.1,666.8355,416.7,652.4355,431.1,638.0355" style="stroke:#181818;stroke-width:0.6;"/><rect fill="#F1F1F1" height="40.9594" rx="15" ry="15" style="stroke:#181818;stroke-width:0.6;" width="151.2" x="355.5" y="690.8355"/><text fill="#000000" font-family="sans-serif" font-size="14.4" lengthAdjust="spacing" textLength="127.2" x="367.5" y="716.7574">Notify the Teacher</text><polygon fill="#F1F1F1" points="360.3,333.8367,501.9,333.8367,516.3,348.2367,501.9,362.6367,360.3,362.6367,345.9,348.2367,360.3,333.8367" style="stroke:#181818;stroke-width:0.6;"/><text fill="#000000" font-family="sans-serif" font-size="13.2" lengthAdjust="spacing" textLength="22.8" x="435.9" y="375.3984">Yes</text><text fill="#000000" font-family="sans-serif" font-size="13.2" lengthAdjust="spacing" textLength="141.6" x="360.3" y="353.2254">Accepted by a teacher</text><text fill="#000000" font-family="sans-serif" font-size="13.2" lengthAdjust="spacing" textLength="18" x="516.3" y="345.4523">No</text><polygon fill="#F1F1F1" points="431.1,770.1949,445.5,784.5949,431.1,798.9949,416.7,784.5949,431.1,770.1949" style="stroke:#181818;stroke-width:0.6;"/><rect fill="#F1F1F1" height="40.9594" rx="15" ry="15" style="stroke:#181818;stroke-width:0.6;" width="146.4" x="357.9" y="268.8773"/><text fill="#000000" font-family="sans-serif" font-size="14.4" lengthAdjust="spacing" textLength="122.4" x="369.9" y="294.7992">Sub Party Process</text><polygon fill="#F1F1F1" points="362.1,822.9949,500.1,822.9949,514.5,837.3949,500.1,851.7949,362.1,851.7949,347.7,837.3949,362.1,822.9949" style="stroke:#181818;stroke-width:0.6;"/><text fill="#000000" font-family="sans-serif" font-size="13.2" lengthAdjust="spacing" textLength="138" x="362.1" y="842.3836">sub request rejected?</text><polygon fill="#F1F1F1" points="290.4,873.3949,304.8,887.7949,290.4,902.1949,276,887.7949,290.4,873.3949" style="stroke:#181818;stroke-width:0.6;"/><ellipse cx="290.4" cy="939.3949" fill="none" rx="13.2" ry="13.2" style="stroke:#222222;stroke-width:1.2;"/><ellipse cx="290.4" cy="939.3949" fill="#222222" rx="7.2" ry="7.2" style="stroke:#222222;stroke-width:1.2;"/><line style="stroke:#181818;stroke-width:1.2;" x1="290.4" x2="290.4" y1="39.1863" y2="66.3727"/><polygon fill="#181818" points="285.6,54.3727,290.4,66.3727,295.2,54.3727,290.4,59.1727" style="stroke:#181818;stroke-width:1.2;"/><line style="stroke:#181818;stroke-width:1.2;" x1="431.1" x2="431.1" y1="526.7438" y2="556.1168"/><polygon fill="#181818" points="426.3,544.1168,431.1,556.1168,435.9,544.1168,431.1,548.9168" style="stroke:#181818;stroke-width:1.2;"/><line style="stroke:#181818;stroke-width:1.2;" x1="475.5" x2="576.9" y1="512.3438" y2="512.3438"/><polygon fill="#181818" points="572.1,573.0762,576.9,585.0762,581.7,573.0762,576.9,577.8762" style="stroke:#181818;stroke-width:1.2;"/><line style="stroke:#181818;stroke-width:1.2;" x1="576.9" x2="576.9" y1="512.3438" y2="652.4355"/><line style="stroke:#181818;stroke-width:1.2;" x1="576.9" x2="445.5" y1="652.4355" y2="652.4355"/><polygon fill="#181818" points="457.5,647.6355,445.5,652.4355,457.5,657.2355,452.7,652.4355" style="stroke:#181818;stroke-width:1.2;"/><line style="stroke:#181818;stroke-width:1.2;" x1="431.1" x2="431.1" y1="614.0355" y2="638.0355"/><polygon fill="#181818" points="426.3,626.0355,431.1,638.0355,435.9,626.0355,431.1,630.8355" style="stroke:#181818;stroke-width:1.2;"/><line style="stroke:#181818;stroke-width:1.2;" x1="431.1" x2="431.1" y1="473.9437" y2="497.9437"/><polygon fill="#181818" points="426.3,485.9437,431.1,497.9437,435.9,485.9437,431.1,490.7438" style="stroke:#181818;stroke-width:1.2;"/><line style="stroke:#181818;stroke-width:1.2;" x1="431.1" x2="431.1" y1="666.8355" y2="690.8355"/><polygon fill="#181818" points="426.3,678.8355,431.1,690.8355,435.9,678.8355,431.1,683.6355" style="stroke:#181818;stroke-width:1.2;"/><line style="stroke:#181818;stroke-width:1.2;" x1="431.1" x2="431.1" y1="362.6367" y2="432.9844"/><polygon fill="#181818" points="426.3,420.9844,431.1,432.9844,435.9,420.9844,431.1,425.7844" style="stroke:#181818;stroke-width:1.2;"/><line style="stroke:#181818;stroke-width:1.2;" x1="516.3" x2="608.1" y1="348.2367" y2="348.2367"/><polygon fill="#181818" points="603.3,563.1832,608.1,575.1832,612.9,563.1832,608.1,567.9832" style="stroke:#181818;stroke-width:1.2;"/><line style="stroke:#181818;stroke-width:1.2;" x1="608.1" x2="608.1" y1="348.2367" y2="784.5949"/><line style="stroke:#181818;stroke-width:1.2;" x1="608.1" x2="445.5" y1="784.5949" y2="784.5949"/><polygon fill="#181818" points="457.5,779.7949,445.5,784.5949,457.5,789.3949,452.7,784.5949" style="stroke:#181818;stroke-width:1.2;"/><line style="stroke:#181818;stroke-width:1.2;" x1="431.1" x2="431.1" y1="731.7949" y2="770.1949"/><polygon fill="#181818" points="426.3,758.1949,431.1,770.1949,435.9,758.1949,431.1,762.9949" style="stroke:#181818;stroke-width:1.2;"/><line style="stroke:#181818;stroke-width:1.2;" x1="431.1" x2="431.1" y1="309.8367" y2="333.8367"/><polygon fill="#181818" points="426.3,321.8367,431.1,333.8367,435.9,321.8367,431.1,326.6367" style="stroke:#181818;stroke-width:1.2;"/><line style="stroke:#0000FF;stroke-width:1.2;" x1="514.5" x2="629.7" y1="837.3949" y2="837.3949"/><polygon fill="#0000FF" points="624.9,584.1434,629.7,572.1434,634.5,584.1434,629.7,579.3434" style="stroke:#0000FF;stroke-width:1.2;"/><line style="stroke:#0000FF;stroke-width:1.2;" x1="629.7" x2="629.7" y1="289.357" y2="837.3949"/><line style="stroke:#0000FF;stroke-width:1.2;" x1="629.7" x2="504.3" y1="289.357" y2="289.357"/><polygon fill="#0000FF" points="516.3,284.557,504.3,289.357,516.3,294.157,511.5,289.357" style="stroke:#0000FF;stroke-width:1.2;"/><text fill="#000000" font-family="sans-serif" font-size="13.2" lengthAdjust="spacing" textLength="3.6" x="634.5" y="842.3836">&#160;</text><line style="stroke:#181818;stroke-width:1.2;" x1="431.1" x2="431.1" y1="798.9949" y2="822.9949"/><polygon fill="#181818" points="426.3,810.9949,431.1,822.9949,435.9,810.9949,431.1,815.7949" style="stroke:#181818;stroke-width:1.2;"/><line style="stroke:#181818;stroke-width:1.2;" x1="431.1" x2="431.1" y1="213.0914" y2="268.8773"/><polygon fill="#181818" points="426.3,256.8773,431.1,268.8773,435.9,256.8773,431.1,261.6773" style="stroke:#181818;stroke-width:1.2;"/><line style="stroke:#181818;stroke-width:1.2;" x1="246" x2="149.7" y1="145.732" y2="145.732"/><line style="stroke:#181818;stroke-width:1.2;" x1="149.7" x2="149.7" y1="145.732" y2="172.132"/><polygon fill="#181818" points="144.9,160.132,149.7,172.132,154.5,160.132,149.7,164.932" style="stroke:#181818;stroke-width:1.2;"/><line style="stroke:#181818;stroke-width:1.2;" x1="334.8" x2="431.1" y1="145.732" y2="145.732"/><line style="stroke:#181818;stroke-width:1.2;" x1="431.1" x2="431.1" y1="145.732" y2="172.132"/><polygon fill="#181818" points="426.3,160.132,431.1,172.132,435.9,160.132,431.1,164.932" style="stroke:#181818;stroke-width:1.2;"/><line style="stroke:#181818;stroke-width:1.2;" x1="149.7" x2="149.7" y1="213.0914" y2="887.7949"/><line style="stroke:#181818;stroke-width:1.2;" x1="149.7" x2="276" y1="887.7949" y2="887.7949"/><polygon fill="#181818" points="264,882.9949,276,887.7949,264,892.5949,268.8,887.7949" style="stroke:#181818;stroke-width:1.2;"/><line style="stroke:#181818;stroke-width:1.2;" x1="431.1" x2="431.1" y1="851.7949" y2="887.7949"/><line style="stroke:#181818;stroke-width:1.2;" x1="431.1" x2="304.8" y1="887.7949" y2="887.7949"/><polygon fill="#181818" points="316.8,882.9949,304.8,887.7949,316.8,892.5949,312,887.7949" style="stroke:#181818;stroke-width:1.2;"/><line style="stroke:#181818;stroke-width:1.2;" x1="290.4" x2="290.4" y1="107.332" y2="131.332"/><polygon fill="#181818" points="285.6,119.332,290.4,131.332,295.2,119.332,290.4,124.132" style="stroke:#181818;stroke-width:1.2;"/><line style="stroke:#181818;stroke-width:1.2;" x1="290.4" x2="290.4" y1="902.1949" y2="926.1949"/><polygon fill="#181818" points="285.6,914.1949,290.4,926.1949,295.2,914.1949,290.4,918.9949" style="stroke:#181818;stroke-width:1.2;"/><!--SRC=[ZL9DQyCm3BtxLmXsQGxPOB1BqcLiXPr6AMilO-pWEYhnwjgPhL12wN-VyzcM9cEwMNhIUthMr56fC640ERSaIHeD1_y2U9CQPqOP2o-AYssVMsLIR3Kw1_Ut3pvxPDExTWXpv8SmRGYPnPy27S7I8wkXCwu5AiKh1eOwXHeLBOlrJX9mU3Ls5pEvWScp49WJfW5GXXecSnEmQ6v8Rieg0ola8aCRCrGEOVA1BgZ5HQwb2XCG3Hkcy0WhMs3CQiXfHyyB2_ygsssxi9WZ9uXEzOKrmW-EBs1Ld6k5TUbte4PP9xnMTjLshUEzjUemYArNwssgy8rLOzWX2tkFHWbcXRMe2SuyJ54XzGx-sJx7_QdJHmBIXSvBxTmVQso-iFhXKOHEvMQmEdWJGy0Z-p_jDLrx4VjCAjzJBTMTjiLl5DwXfm32pvkrAl0hJ5Z3sCnnP7Bs2m00]--></g></svg>